<svg width="18" height="18" viewBox="0 0 18 18" fill="none" xmlns="http://www.w3.org/2000/svg">
<path fill-rule="evenodd" clip-rule="evenodd" d="M5.70711 8.29289C6.09763 8.68342 6.09763 9.31658 5.70711 9.70711L1.70711 13.7071C1.31658 14.0976 0.683417 14.0976 0.292893 13.7071C-0.0976311 13.3166 -0.0976311 12.6834 0.292893 12.2929L4.29289 8.29289C4.68342 7.90237 5.31658 7.90237 5.70711 8.29289Z" fill="currentColor"/>
<path fill-rule="evenodd" clip-rule="evenodd" d="M0.292893 12.2929C0.683417 11.9024 1.31658 11.9024 1.70711 12.2929L5.70711 16.2929C6.09763 16.6834 6.09763 17.3166 5.70711 17.7071C5.31658 18.0976 4.68342 18.0976 4.29289 17.7071L0.292893 13.7071C-0.0976311 13.3166 -0.0976311 12.6834 0.292893 12.2929Z" fill="currentColor"/>
<path fill-rule="evenodd" clip-rule="evenodd" d="M0 13C0 12.4477 0.447715 12 1 12H17C17.5523 12 18 12.4477 18 13C18 13.5523 17.5523 14 17 14H1C0.447715 14 0 13.5523 0 13Z" fill="currentColor"/>
<path fill-rule="evenodd" clip-rule="evenodd" d="M17.7071 4.29289C18.0976 4.68342 18.0976 5.31658 17.7071 5.70711L13.7071 9.70711C13.3166 10.0976 12.6834 10.0976 12.2929 9.70711C11.9024 9.31658 11.9024 8.68342 12.2929 8.29289L16.2929 4.29289C16.6834 3.90237 17.3166 3.90237 17.7071 4.29289Z" fill="currentColor"/>
<path fill-rule="evenodd" clip-rule="evenodd" d="M12.2929 0.292893C12.6834 -0.0976311 13.3166 -0.0976311 13.7071 0.292893L17.7071 4.29289C18.0976 4.68342 18.0976 5.31658 17.7071 5.70711C17.3166 6.09763 16.6834 6.09763 16.2929 5.70711L12.2929 1.70711C11.9024 1.31658 11.9024 0.683417 12.2929 0.292893Z" fill="currentColor"/>
<path fill-rule="evenodd" clip-rule="evenodd" d="M0 5C0 4.44772 0.447715 4 1 4H17C17.5523 4 18 4.44772 18 5C18 5.55228 17.5523 6 17 6H1C0.447715 6 0 5.55228 0 5Z" fill="currentColor"/>
</svg>
