<svg width="24" height="24" viewBox="0 0 24 24" fill="none" xmlns="http://www.w3.org/2000/svg">
<g clip-path="url(#clip0_102_7771)">
<circle cx="12" cy="12" r="12" fill="black"/>
<path d="M12 6C12 5.58579 12.3358 5.25 12.75 5.25H15C15.4142 5.25 15.75 5.58579 15.75 6V8.25C15.75 8.66421 15.4142 9 15 9H12.75C12.3358 9 12 8.66421 12 8.25V6Z" fill="#61E5FE"/>
<path d="M12 10.5C12 10.0858 12.3358 9.75 12.75 9.75H15C15.4142 9.75 15.75 10.0858 15.75 10.5V12.75C15.75 13.1642 15.4142 13.5 15 13.5H12.75C12.3358 13.5 12 13.1642 12 12.75V10.5Z" fill="#F6C92F"/>
<path d="M7.5 10.5C7.5 10.0858 7.83579 9.75 8.25 9.75H10.5C10.9142 9.75 11.25 10.0858 11.25 10.5V12.75C11.25 13.1642 10.9142 13.5 10.5 13.5H8.25C7.83579 13.5 7.5 13.1642 7.5 12.75V10.5Z" fill="#E6491C"/>
<path d="M12 15C12 14.5858 12.3358 14.25 12.75 14.25H15C15.4142 14.25 15.75 14.5858 15.75 15V17.25C15.75 17.6642 15.4142 18 15 18H12.75C12.3358 18 12 17.6642 12 17.25V15Z" fill="#61E5FD"/>
<path d="M7.5 15C7.5 14.5858 7.83579 14.25 8.25 14.25H10.5C10.9142 14.25 11.25 14.5858 11.25 15V17.25C11.25 17.6642 10.9142 18 10.5 18H8.25C7.83579 18 7.5 17.6642 7.5 17.25V15Z" fill="#F6C92F"/>
<circle cx="12" cy="12" r="12" fill="url(#paint0_linear_102_7771)" fill-opacity="0.2"/>
</g>
<defs>
<linearGradient id="paint0_linear_102_7771" x1="12" y1="0" x2="12" y2="24" gradientUnits="userSpaceOnUse">
<stop stop-color="white"/>
<stop offset="1" stop-color="white" stop-opacity="0"/>
</linearGradient>
<clipPath id="clip0_102_7771">
<rect width="24" height="24" fill="white"/>
</clipPath>
</defs>
</svg>
