<svg width="14" height="14" viewBox="0 0 14 14" fill="none" xmlns="http://www.w3.org/2000/svg">
<path fill-rule="evenodd" clip-rule="evenodd" d="M6.99967 1.66659C4.05416 1.66659 1.66634 4.0544 1.66634 6.99992C1.66634 9.94544 4.05416 12.3333 6.99967 12.3333C9.94519 12.3333 12.333 9.94544 12.333 6.99992C12.333 4.0544 9.94519 1.66659 6.99967 1.66659ZM0.333008 6.99992C0.333008 3.31802 3.31778 0.333252 6.99967 0.333252C10.6816 0.333252 13.6663 3.31802 13.6663 6.99992C13.6663 10.6818 10.6816 13.6666 6.99967 13.6666C3.31778 13.6666 0.333008 10.6818 0.333008 6.99992Z" fill="#808B9D"/>
<path fill-rule="evenodd" clip-rule="evenodd" d="M6.99967 5C7.36786 5 7.66634 5.29848 7.66634 5.66667V11C7.66634 11.3682 7.36786 11.6667 6.99967 11.6667C6.63148 11.6667 6.33301 11.3682 6.33301 11V5.66667C6.33301 5.29848 6.63148 5 6.99967 5Z" fill="#808B9D"/>
<path d="M6.53301 4.33333H7.46634C7.59967 4.33333 7.66634 4.26666 7.66634 4.13333V3.2C7.66634 3.06667 7.59967 3 7.46634 3H6.53301C6.39967 3 6.33301 3.06667 6.33301 3.2V4.13333C6.33301 4.26666 6.39967 4.33333 6.53301 4.33333Z" fill="#808B9D"/>
</svg>
