<svg width="24" height="24" viewBox="0 0 24 24" fill="none" xmlns="http://www.w3.org/2000/svg">
<g clip-path="url(#clip0_3_7588)">
<path d="M12 24C18.6274 24 24 18.6274 24 12C24 5.37258 18.6274 0 12 0C5.37258 0 0 5.37258 0 12C0 18.6274 5.37258 24 12 24Z" fill="#2775CA"/>
<path d="M9.8 20.3C9.8 20.6 9.6 20.7 9.3 20.7C5.6 19.5 3 16.1 3 12.1C3 8.10001 5.6 4.70001 9.3 3.50001C9.6 3.40001 9.8 3.60001 9.8 3.90001V4.60001C9.8 4.80001 9.7 5.00001 9.5 5.10001C6.6 6.20001 4.6 8.90001 4.6 12.1C4.6 15.3 6.7 18.1 9.5 19.1C9.7 19.2 9.8 19.4 9.8 19.6V20.3Z" fill="white"/>
<path d="M12.8 17.8C12.8 18 12.6 18.2 12.4 18.2H11.6C11.4 18.2 11.2 18 11.2 17.8V16.6C9.6 16.4 8.8 15.5 8.5 14.2C8.5 14 8.6 13.8 8.8 13.8H9.7C9.9 13.8 10 13.9 10.1 14.1C10.3 14.8 10.7 15.4 12 15.4C13 15.4 13.7 14.9 13.7 14.1C13.7 13.3 13.3 13 11.9 12.8C9.8 12.5 8.8 11.9 8.8 10.2C8.8 8.89998 9.8 7.89998 11.2 7.69998V6.49998C11.2 6.29998 11.4 6.09998 11.6 6.09998H12.4C12.6 6.09998 12.8 6.29998 12.8 6.49998V7.69998C14 7.89998 14.8 8.59998 15 9.69997C15 9.89997 14.9 10.1 14.7 10.1H13.9C13.7 10.1 13.6 9.99998 13.5 9.79998C13.3 9.09998 12.8 8.79998 11.9 8.79998C10.9 8.79998 10.4 9.29998 10.4 9.99997C10.4 10.7 10.7 11.1 12.2 11.3C14.3 11.6 15.3 12.2 15.3 13.9C15.3 15.2 14.3 16.3 12.8 16.6V17.8V17.8Z" fill="white"/>
<path d="M14.7002 20.7C14.4002 20.8 14.2002 20.6 14.2002 20.3V19.6C14.2002 19.4 14.3002 19.2 14.5002 19.1C17.4002 18 19.4002 15.3 19.4002 12.1C19.4002 8.9 17.3002 6.1 14.5002 5.1C14.3002 5 14.2002 4.8 14.2002 4.6V3.9C14.2002 3.6 14.4002 3.5 14.7002 3.5C18.3002 4.7 21.0002 8.1 21.0002 12.1C21.0002 16.1 18.4002 19.5 14.7002 20.7Z" fill="white"/>
<circle cx="12" cy="12" r="12" fill="url(#paint0_linear_3_7588)" fill-opacity="0.2"/>
</g>
<defs>
<linearGradient id="paint0_linear_3_7588" x1="12" y1="0" x2="12" y2="24" gradientUnits="userSpaceOnUse">
<stop stop-color="white"/>
<stop offset="1" stop-color="white" stop-opacity="0"/>
</linearGradient>
<clipPath id="clip0_3_7588">
<rect width="24" height="24" fill="white"/>
</clipPath>
</defs>
</svg>
